<svg width="75" height="25" viewBox="0 0 75 25" fill="none" xmlns="http://www.w3.org/2000/svg">
<g id="Layer 3">
<g id="Layer 1">
<path id="Vector" d="M29.6309 6.92975C29.7124 7.0076 29.7772 7.10036 29.8213 7.20264C29.8655 7.30492 29.8883 7.41468 29.8883 7.52555C29.8883 7.63641 29.8655 7.74617 29.8213 7.84845C29.7772 7.95073 29.7124 8.04349 29.6309 8.12135C29.1808 8.54149 28.6828 8.91074 28.1466 9.22198C27.6089 9.53518 27.0416 9.79814 26.4524 10.0073C26.1581 10.1134 25.8262 10.2165 25.4097 10.3105C25.1181 10.375 24.8498 10.5143 24.6331 10.7138C24.4316 10.9284 24.2639 11.1705 24.1351 11.4324C23.9075 11.8827 23.6314 12.3085 23.3116 12.7028C22.9223 13.1716 22.504 13.6172 22.059 14.0369C21.8429 14.234 21.608 14.4311 21.3513 14.6433C21.1013 14.8414 20.8376 15.0227 20.5621 15.186C20.2836 15.3517 19.9876 15.4879 19.679 15.5923C19.3775 15.6944 19.0587 15.7397 18.7396 15.7257C18.1869 15.6962 17.6654 15.4681 17.2772 15.086C16.8853 14.6979 16.6234 14.2044 16.5256 13.67C16.4323 13.0954 16.444 12.5094 16.5601 11.9387C16.6807 11.3433 16.872 10.7634 17.13 10.2104C17.349 9.71253 17.6208 9.238 17.9411 8.79446C18.346 8.23757 18.8042 7.71882 19.3095 7.24508C19.8345 6.75568 20.428 6.34025 21.0726 6.01103C21.4594 5.64614 21.9705 5.43051 22.5099 5.40462C22.8494 5.39513 23.1867 5.46045 23.4963 5.59564C23.7619 5.71964 23.9952 5.89996 24.179 6.12322C24.3721 6.3579 24.5292 6.6183 24.6456 6.89639C24.7752 7.19921 24.8799 7.51147 24.9587 7.83027C25.0214 8.03948 25.0809 8.22747 25.1435 8.3912C25.2061 8.55493 25.3533 8.60041 25.585 8.52461C26.0916 8.35726 26.5837 8.15145 27.0568 7.9091C27.5525 7.65425 28.0055 7.32814 28.4002 6.94187C28.5639 6.78468 28.7851 6.69647 29.0156 6.69647C29.2461 6.69647 29.4673 6.78468 29.6309 6.94187V6.92975ZM20.1895 13.3668C20.5907 13.0576 20.9743 12.7277 21.3387 12.3784C21.7127 12.0256 22.036 11.6258 22.3001 11.1898C22.3928 11.0328 22.4261 10.8495 22.394 10.6713C22.3736 10.5764 22.3319 10.487 22.2718 10.4095C22.2118 10.3319 22.1348 10.2681 22.0464 10.2226C21.7802 10.1113 21.5339 9.95988 21.3168 9.77382C21.108 9.59594 20.8993 9.40189 20.6905 9.19166C20.4108 8.84601 20.0976 8.86824 19.7511 9.25837C19.4916 9.51134 19.2654 9.79447 19.0778 10.1013C18.8762 10.4245 18.7094 10.7669 18.5799 11.1231C18.4484 11.4806 18.351 11.849 18.2887 12.2237C18.2272 12.5864 18.2041 12.9541 18.2198 13.3213C18.2344 13.6205 18.3189 13.8115 18.4734 13.8944C18.6408 13.9802 18.8357 14.0008 19.0183 13.952C19.2388 13.9001 19.4499 13.8162 19.6446 13.7034C19.835 13.6051 20.0172 13.4926 20.1895 13.3668ZM23.2301 8.15773C23.236 7.91425 23.1846 7.67268 23.0798 7.45126C22.9765 7.24811 22.7667 7.18444 22.416 7.26024C22.3004 7.27675 22.1936 7.32963 22.1121 7.41073C22.0306 7.49183 21.9789 7.59663 21.965 7.70899C21.9404 7.80915 21.9437 7.91384 21.9745 8.01238C22.0053 8.11092 22.0625 8.19978 22.1404 8.26992C22.1842 8.3154 22.2437 8.36997 22.3126 8.43668C22.3747 8.50127 22.4506 8.55198 22.535 8.58525C22.8105 8.71866 22.9984 8.72169 23.0892 8.58525C23.1793 8.46302 23.2285 8.31698 23.2301 8.16683V8.15773Z" fill="#EA580C"/>
<path id="Vector_2" d="M31.0463 2.41776C31.1414 2.20621 31.2981 2.02606 31.4972 1.89928C31.5879 1.83962 31.6914 1.80071 31.7999 1.78548C31.9084 1.77024 32.0191 1.77909 32.1235 1.81135C32.2319 1.84254 32.3328 1.89424 32.4205 1.96346C32.5081 2.03268 32.5806 2.11805 32.6339 2.21461C32.7018 2.30354 32.7476 2.40644 32.7677 2.5153C32.7878 2.62417 32.7817 2.73605 32.7498 2.84225C32.5902 3.28684 32.3801 3.71292 32.1235 4.11268C31.7749 4.71909 31.3657 5.41545 30.896 6.20177C30.4262 6.98808 29.9398 7.81482 29.4367 8.68199C28.9315 9.5532 28.4952 10.3618 28.1277 11.1076C27.8068 11.7278 27.5428 12.3741 27.3386 13.0391C27.182 13.5788 27.229 13.9153 27.4764 14.0487C27.5703 14.0942 27.7018 14.0487 27.8709 13.9608C28.0729 13.8307 28.2626 13.6836 28.4377 13.5212C28.6476 13.3362 28.8605 13.13 29.064 12.9147C29.2676 12.6995 29.4743 12.4812 29.6434 12.2841C29.8125 12.087 29.9565 11.9263 30.0505 11.7899C30.1444 11.6534 30.2008 11.5958 30.2008 11.611C30.5859 11.1167 30.9523 10.6225 31.2905 10.1283C31.3473 10.0307 31.4237 9.94498 31.5151 9.87626C31.6065 9.80754 31.7111 9.75716 31.8229 9.72805C31.9337 9.69954 32.0493 9.6929 32.1628 9.70852C32.2763 9.72415 32.3854 9.76173 32.4836 9.81901C32.6766 9.93818 32.818 10.1215 32.8813 10.3345C32.9159 10.439 32.9266 10.5496 32.9125 10.6585C32.8984 10.7674 32.86 10.8721 32.7999 10.9651C32.4909 11.4139 32.1694 11.8515 31.8354 12.278C31.5014 12.7045 31.1611 13.1229 30.8145 13.5333C30.5376 13.8519 30.2428 14.1555 29.9315 14.4429C29.6203 14.7293 29.2874 14.9929 28.9357 15.2312C28.7127 15.375 28.4704 15.4883 28.2154 15.5678C27.9426 15.6553 27.6573 15.7003 27.3699 15.7012C27.089 15.7022 26.8116 15.641 26.5589 15.5223C26.2876 15.3861 26.0771 15.1586 25.967 14.8826C25.7972 14.547 25.7134 14.1767 25.7227 13.8031C25.7324 13.4032 25.7753 13.0048 25.8511 12.6115C26.0507 11.6835 26.3662 10.7824 26.7906 9.92817C27.2081 9.08323 27.6643 8.25245 28.159 7.43582C28.6538 6.61918 29.1601 5.79951 29.6778 4.97682C30.1905 4.15328 30.6476 3.29847 31.0463 2.41776Z" fill="#EA580C"/>
<path id="Vector_3" d="M40.347 6.12294C40.0876 5.86522 39.7874 5.64925 39.4577 5.48318C39.1208 5.32055 38.761 5.20714 38.3898 5.14662C37.8638 5.05717 37.325 5.0654 36.8022 5.17088C36.3055 5.27295 35.8252 5.43918 35.3742 5.6651C34.7339 5.98794 34.1539 6.41222 33.6581 6.92038C33.164 7.42453 32.7018 7.95712 32.274 8.51524C31.9296 8.97807 31.6238 9.46677 31.3596 9.97669C31.1081 10.4583 30.9168 10.9672 30.7897 11.4927C30.6485 12.0914 30.6485 12.7132 30.7897 13.312C30.9293 13.8936 31.3007 14.3983 31.8231 14.7158C32.0097 14.8341 32.2264 14.9002 32.4494 14.9068C32.6605 14.9164 32.8718 14.8939 33.0757 14.8401C33.2773 14.7878 33.4718 14.7125 33.655 14.6157C33.8429 14.5187 34.012 14.4247 34.1654 14.3338C34.1654 14.3338 37.5381 11.0895 38.3867 9.90999C38.4256 9.82272 38.4438 9.72814 38.44 9.63318C38.4362 9.53822 38.4105 9.44528 38.3648 9.36118C38.2878 9.18879 38.1576 9.04369 37.9921 8.94579C37.8946 8.887 37.7854 8.84855 37.6717 8.83288C37.5579 8.81722 37.442 8.8247 37.3314 8.85483C37.221 8.88446 37.1181 8.93549 37.0287 9.00481C36.9394 9.07413 36.8655 9.1603 36.8116 9.25809C36.5329 9.64923 36.251 10.007 35.9629 10.3375C35.6748 10.668 35.3805 10.9894 35.0704 11.3017C34.6696 11.7232 34.3126 12.0658 34.0026 12.3356C33.7154 12.592 33.4004 12.8177 33.0632 13.0088C33.0231 13.036 32.9778 13.0552 32.9299 13.0651C32.882 13.075 32.8325 13.0754 32.7845 13.0664C32.7057 13.0417 32.6368 12.994 32.5872 12.9299C32.5312 12.8602 32.4917 12.7795 32.4713 12.6934C32.4483 12.6135 32.4367 12.5308 32.4369 12.4478C32.4363 12.1397 32.4827 11.8332 32.5746 11.5382C32.6705 11.2413 32.7909 10.9523 32.9348 10.6741C33.0789 10.394 33.2421 10.1236 33.4233 9.86451C33.5986 9.60981 33.7803 9.37028 33.9682 9.14591C34.3157 8.70108 34.7035 8.28708 35.1268 7.90883C35.5381 7.53548 36.0086 7.22838 36.5203 6.99921C36.7479 6.9245 36.9801 6.86374 37.2155 6.81729C37.453 6.77364 37.696 6.76648 37.9358 6.79606C38.1634 6.82607 38.3858 6.88627 38.5965 6.97495C38.7831 7.05468 38.9537 7.16552 39.1007 7.30242C39.1865 7.38672 39.2889 7.4535 39.4019 7.49881C39.5148 7.54412 39.636 7.56704 39.7583 7.56621C39.9802 7.56234 40.1917 7.47412 40.347 7.32061C40.5112 7.15902 40.6025 6.9409 40.6006 6.7142C40.6023 6.6041 40.5806 6.49484 40.537 6.39316C40.4934 6.29147 40.4287 6.19951 40.347 6.12294Z" fill="#EA580C"/>
<path id="Vector_4" d="M51.7833 9.80684C51.8808 9.86305 51.9657 9.93763 52.0329 10.0262C52.1001 10.1147 52.1484 10.2154 52.1747 10.3223C52.2062 10.4272 52.2144 10.5374 52.1988 10.6455C52.1831 10.7537 52.1439 10.8575 52.0839 10.9499C51.8751 11.3097 51.6006 11.7403 51.2603 12.2416C50.9203 12.7544 50.5523 13.2493 50.158 13.7243C49.7713 14.1949 49.3336 14.6238 48.8522 15.0038C48.4411 15.347 47.9464 15.5828 47.4148 15.689C47.096 15.7345 46.7709 15.7162 46.4596 15.6354C46.1483 15.5545 45.8574 15.4129 45.6048 15.2191C45.464 15.126 45.3291 15.0247 45.2009 14.9159C45.1066 14.8252 45.0015 14.7458 44.8877 14.6794C44.7916 14.6286 44.6841 14.6015 44.5746 14.6005C44.4393 14.6098 44.3097 14.6573 44.2019 14.737C44.1475 14.7547 44.0967 14.7814 44.0516 14.8158L43.7729 14.9826L43.4973 15.1524C43.4501 15.1852 43.3984 15.2117 43.3439 15.2312C43.2687 15.2736 43.1905 15.3161 43.1122 15.3525C43.0339 15.3889 42.9587 15.4313 42.8804 15.4768C42.6957 15.5526 42.5078 15.6193 42.3136 15.6799C42.1112 15.7406 41.8986 15.7633 41.6873 15.7466C41.2373 15.7232 40.8098 15.5484 40.4786 15.2524C40.0207 14.83 39.7435 14.2565 39.702 13.6454C39.6676 13.0191 39.7667 12.3926 39.9932 11.805C40.2326 11.1615 40.5556 10.5502 40.9546 9.98573C41.3318 9.45038 41.7505 8.94357 42.2072 8.4697C42.5894 8.08923 42.9962 7.73274 43.4253 7.40242C43.8863 7.04882 44.38 6.73721 44.9002 6.47158C45.4157 6.20168 45.9652 5.99783 46.5349 5.86517C47.0934 5.73823 47.6721 5.71866 48.2384 5.80756C48.4377 5.84201 48.6322 5.899 48.8177 5.97735C49.0135 6.05373 49.1882 6.1731 49.3282 6.32604C49.4485 6.44317 49.5306 6.59195 49.5643 6.75389C49.598 6.91584 49.5819 7.0838 49.5178 7.23692C49.4538 7.39004 49.3446 7.52156 49.204 7.61513C49.0634 7.7087 48.8975 7.7602 48.7269 7.76323C48.5026 7.76657 48.2857 7.68498 48.1225 7.53583C48.0185 7.4428 47.8822 7.39088 47.7405 7.39029C47.5655 7.38555 47.3904 7.39672 47.2175 7.42364C47.0309 7.45398 46.8482 7.50379 46.6727 7.57221L46.2437 7.73898C45.5732 8.03003 44.9422 8.39968 44.3648 8.83962C43.7732 9.30059 43.2327 9.81984 42.752 10.389C42.5672 10.6184 42.3968 10.8584 42.2416 11.1076C42.0363 11.4307 41.8583 11.7694 41.7093 12.1203C41.5628 12.4533 41.4648 12.8043 41.418 13.1633C41.3952 13.3065 41.404 13.4527 41.444 13.5922C41.4839 13.7318 41.5541 13.8616 41.6498 13.9729C41.7562 14.0942 41.9285 14.1002 42.1602 13.9971C42.4446 13.8569 42.7097 13.6827 42.9493 13.4787C43.2691 13.2144 43.5743 12.9341 43.8637 12.6388C44.1769 12.3144 44.4744 12.0021 44.7468 11.6928C45.0192 11.3835 45.2478 11.1167 45.442 10.8863L45.824 10.4254C45.9482 10.2894 46.0643 10.1467 46.1716 9.99786C46.2802 9.85235 46.4354 9.74573 46.6132 9.69466C46.7247 9.65734 46.8437 9.64585 46.9606 9.66112C47.0775 9.67639 47.1891 9.71799 47.2864 9.78259C47.389 9.83663 47.4789 9.91057 47.5505 9.99978C47.6222 10.089 47.6741 10.1916 47.7029 10.3011C47.7353 10.4085 47.7429 10.5215 47.725 10.6321C47.7072 10.7427 47.6643 10.8481 47.5996 10.9408C47.4057 11.2426 47.2351 11.5578 47.0892 11.8838C47.0578 11.9596 47.0046 12.1112 46.9294 12.3447C46.849 12.5828 46.7903 12.8273 46.7541 13.0754C46.72 13.3026 46.72 13.5334 46.7541 13.7606C46.7854 13.9608 46.895 14.0639 47.0672 14.0639C47.3964 14.0177 47.697 13.8572 47.9127 13.6121C48.2693 13.2849 48.5953 12.9278 48.8866 12.5448C49.2081 12.1264 49.5213 11.6958 49.8261 11.2531L50.6027 10.1191C50.6575 10.0217 50.7323 9.93605 50.8224 9.86753C50.9126 9.79901 51.0163 9.74903 51.1271 9.72065C51.2379 9.69226 51.3535 9.68607 51.4669 9.70246C51.5802 9.71884 51.689 9.75746 51.7864 9.81594L51.7833 9.80684Z" fill="#EA580C"/>
<path id="Vector_5" d="M56.7903 3.92172C56.8849 3.91286 56.9804 3.9234 57.0705 3.95266C57.1606 3.98191 57.2433 4.02923 57.3133 4.09151C57.4547 4.2092 57.5489 4.37125 57.5795 4.54936C57.6123 4.74084 57.5711 4.93733 57.4636 5.10119C57.3693 5.26747 57.2237 5.40105 57.0471 5.48323C56.8322 5.57209 56.6115 5.64705 56.3864 5.7076C56.2235 5.74748 56.0643 5.80021 55.9104 5.86527C55.6264 5.97085 55.3588 6.11368 55.115 6.28976C54.8767 6.48184 54.6762 6.71398 54.5231 6.975L53.8624 8.05442C53.6463 8.4122 53.4208 8.76392 53.1891 9.10957C52.9574 9.45523 52.7257 9.89184 52.4939 10.289C52.2619 10.6817 52.0528 11.0866 51.8676 11.5019C51.805 11.6504 51.7549 11.7748 51.7173 11.8718C51.6797 11.9688 51.6422 12.0628 51.614 12.1507C51.5858 12.2387 51.5513 12.3387 51.52 12.4539C51.4887 12.5692 51.4574 12.6844 51.4261 12.836C51.3443 13.0712 51.3565 13.3277 51.4605 13.5546C51.5009 13.6312 51.5583 13.6982 51.6288 13.7506C51.6992 13.8031 51.7808 13.8397 51.8676 13.8578C52.0574 13.8851 52.2513 13.8576 52.425 13.7789C52.6236 13.6975 52.7988 13.5706 52.9355 13.409C53.3593 12.9125 53.7525 12.3921 54.1129 11.8506C54.4908 11.2886 54.9083 10.6822 55.3655 10.0313C55.4972 9.85312 55.6835 9.71949 55.8979 9.64928C56.006 9.61274 56.1216 9.60193 56.235 9.61777C56.3484 9.6336 56.4561 9.6756 56.5492 9.74024C56.6468 9.7968 56.7318 9.87145 56.7995 9.9599C56.8672 10.0484 56.9162 10.1489 56.9438 10.2557C56.9747 10.3613 56.9823 10.472 56.9661 10.5807C56.9499 10.6894 56.9103 10.7935 56.8498 10.8864L55.782 12.457C55.3874 13.0331 54.9835 13.6001 54.5638 14.1519C54.1628 14.7241 53.59 15.1633 52.9229 15.4102C52.3607 15.6346 51.7406 15.6854 51.1474 15.5557C50.8794 15.4879 50.6284 15.3684 50.4094 15.2043C50.1903 15.0401 50.0078 14.8348 49.8729 14.6006C49.5597 14.1003 49.5096 13.406 49.71 12.5237C49.9392 11.5105 50.3268 10.5371 50.8593 9.63715C51.3916 8.73158 51.9365 7.84419 52.4939 6.975C52.6306 6.77294 52.755 6.56337 52.8666 6.34737C52.9104 6.24023 52.9104 6.17656 52.8666 6.15635C52.7955 6.13133 52.719 6.12403 52.6442 6.13512C52.5897 6.13606 52.5357 6.12541 52.4859 6.10393C52.4362 6.08245 52.3919 6.05067 52.3561 6.01081C52.1917 5.84914 52.0995 5.63132 52.0995 5.4044C52.0995 5.17747 52.1917 4.95965 52.3561 4.79798C52.5396 4.63492 52.7625 4.51918 53.0044 4.46143L53.6526 4.30376C53.8643 4.24748 54.0533 4.13008 54.1943 3.9672C54.3507 3.78127 54.4832 3.57764 54.5889 3.36079C54.6484 3.24254 54.7204 3.11216 54.7956 2.96965C54.8686 2.83878 54.9234 2.6991 54.9584 2.55426C54.9865 2.44568 55.0371 2.34374 55.1071 2.25462C55.177 2.16551 55.265 2.09106 55.3655 2.03578C55.4697 1.97938 55.5856 1.94605 55.7047 1.93818C55.8238 1.93032 55.9433 1.94812 56.0544 1.9903C56.276 2.05432 56.4634 2.19882 56.5774 2.39356C56.6409 2.48522 56.6813 2.59001 56.6955 2.69953C56.7096 2.80905 56.6971 2.92026 56.6588 3.02423L56.5649 3.2486C56.5335 3.3244 56.5022 3.40627 56.474 3.4942C56.3958 3.66096 56.377 3.77618 56.4145 3.84289C56.4521 3.90959 56.5743 3.93688 56.7903 3.92172Z" fill="#EA580C"/>
<path id="Vector_6" d="M64.5375 9.96173C64.6963 10.1185 64.788 10.3275 64.7943 10.5469C64.8138 10.7679 64.7565 10.9888 64.6315 11.1746C64.4154 11.5475 64.1962 11.8507 63.9927 12.1539C63.7992 12.4268 63.5901 12.689 63.3664 12.9392C63.1468 13.1827 62.9148 13.4155 62.6712 13.6366C62.4238 13.861 62.1451 14.1066 61.8382 14.3764C61.5096 14.6423 61.1438 14.8618 60.7516 15.0283C60.2912 15.2327 59.8134 15.398 59.3236 15.5225C58.8264 15.648 58.3177 15.7262 57.8048 15.756C57.3371 15.7904 56.8668 15.7525 56.4113 15.6438C55.9648 15.5341 55.5569 15.31 55.2308 14.995C54.569 14.3137 54.3216 13.3667 54.4886 12.1539C54.5336 11.8727 54.5995 11.5951 54.6859 11.3231C54.7704 11.0533 54.8675 10.7925 54.974 10.5378C55.1149 10.2346 55.2558 9.93141 55.403 9.64943C55.5452 9.36279 55.7063 9.08529 55.8852 8.81865C56.1417 8.43391 56.4286 8.06897 56.7433 7.72711C57.0661 7.37935 57.4238 7.06348 57.8111 6.78414C58.1913 6.51179 58.6046 6.28572 59.0418 6.11102C59.4777 5.93799 59.94 5.83555 60.4102 5.80781C60.6384 5.79371 60.8674 5.8049 61.0929 5.84116C61.3372 5.88121 61.5705 5.96889 61.7787 6.09889C61.898 6.17169 62.0101 6.25492 62.1138 6.34752C62.2196 6.44037 62.317 6.5418 62.405 6.65072C62.5572 6.86352 62.6637 7.10377 62.7181 7.35719C62.7808 7.61857 62.7935 7.88882 62.7557 8.15463C62.7148 8.42808 62.6401 8.6958 62.5334 8.95206C62.4329 9.20261 62.3004 9.43995 62.1388 9.65853C61.7535 10.2123 61.2573 10.6856 60.6795 11.0502C60.3711 11.2609 60.0352 11.4312 59.6806 11.5566C59.332 11.6825 58.9629 11.7471 58.5908 11.7476C58.1539 11.7241 57.7236 11.633 57.3163 11.4778C57.2038 11.4297 57.0805 11.4106 56.9581 11.4223C56.8358 11.434 56.7186 11.4761 56.618 11.5445C56.4362 11.707 56.3105 11.9198 56.2579 12.1539C56.2194 12.2713 56.188 12.3908 56.1639 12.5117C56.1513 12.6691 56.1513 12.8273 56.1639 12.9847C56.1699 13.147 56.2048 13.307 56.2673 13.4577C56.329 13.6065 56.4242 13.7401 56.546 13.8488C56.6906 13.9713 56.8672 14.0531 57.0564 14.0853C57.7514 14.1969 58.4641 14.1428 59.1326 13.9277C59.9881 13.6665 60.7587 13.1942 61.3685 12.5572C61.5877 12.348 61.7756 12.16 61.9384 11.9962C62.1012 11.8325 62.2515 11.6597 62.4019 11.4808C62.5522 11.3019 62.6994 11.1018 62.8559 10.8744C63.0125 10.647 63.1691 10.3923 63.3632 10.077C63.4291 9.98527 63.5119 9.90612 63.6075 9.84348C63.6979 9.7778 63.8076 9.74169 63.9206 9.74039C64.0335 9.73567 64.1462 9.75282 64.2521 9.79082C64.3581 9.82883 64.4551 9.88694 64.5375 9.96173ZM58.738 8.21223C58.4298 8.46675 58.1429 8.74455 57.88 9.04302C57.7648 9.18225 57.7108 9.35978 57.7297 9.53724C57.751 9.63045 57.7947 9.71747 57.8573 9.79124C57.9198 9.865 57.9995 9.92342 58.0898 9.96173C58.2614 10.0345 58.4474 10.0697 58.6347 10.0648C58.8372 10.0518 59.0366 10.0099 59.2265 9.94051C59.6538 9.7598 60.0433 9.50495 60.3758 9.18856C60.7307 8.86778 60.9635 8.44047 61.0365 7.97573C61.0526 7.87239 61.0362 7.76676 60.9896 7.67253C60.9624 7.62133 60.9229 7.57723 60.8744 7.54398C60.8258 7.51072 60.7698 7.48929 60.7109 7.48151C60.5476 7.44028 60.3762 7.44028 60.213 7.48151C60.0278 7.52061 59.8481 7.58066 59.6775 7.6604C59.5034 7.74126 59.334 7.83135 59.1702 7.93025C59.0073 8.02728 58.8633 8.12127 58.738 8.21223Z" fill="#EA580C"/>
<path id="Vector_7" d="M72.7734 9.82798C72.9706 9.94407 73.115 10.1283 73.1774 10.3434C73.2128 10.4478 73.2239 10.5586 73.2098 10.6676C73.1958 10.7767 73.1569 10.8814 73.096 10.9741C72.4766 11.9342 71.7279 12.8101 70.8695 13.5786C70.0132 14.3521 69.0031 14.9484 67.9008 15.3312C67.5208 15.4667 67.1288 15.5682 66.7296 15.6344C66.3274 15.7008 65.9183 15.7191 65.5115 15.6889C65.1114 15.6589 64.7174 15.5763 64.3403 15.4434C63.9608 15.3067 63.6167 15.0915 63.332 14.8127C63.1675 14.651 63.0753 14.4332 63.0753 14.2063C63.0753 13.9793 63.1675 13.7615 63.332 13.5999C63.4116 13.5246 63.5063 13.4659 63.6102 13.4273C63.7142 13.3887 63.8251 13.3711 63.9364 13.3755C64.1336 13.3785 64.3274 13.4252 64.5032 13.5119C64.6782 13.5944 64.8605 13.6614 65.048 13.712C65.3186 13.7767 65.6036 13.7533 65.8591 13.6453C66.105 13.5305 66.3196 13.3612 66.4854 13.1511C66.5777 13.0349 66.6594 12.9111 66.7296 12.7812C66.7985 12.6539 66.8737 12.5235 66.9488 12.387C67.1961 11.8522 67.3384 11.2774 67.3685 10.6921C67.399 10.0997 67.3041 9.50741 67.0898 8.95172C67.0497 8.8547 66.9784 8.77278 66.8865 8.71815C66.7945 8.66352 66.6868 8.6391 66.5793 8.64851C66.4475 8.66869 66.3231 8.72064 66.2175 8.79959C66.1119 8.87854 66.0285 8.98194 65.9749 9.10029C65.7745 9.40349 65.5772 9.72792 65.3831 10.0433L64.8226 10.9407C64.7676 11.0404 64.6919 11.1279 64.6003 11.1978C64.5087 11.2677 64.4031 11.3185 64.2902 11.347C64.1812 11.3772 64.0667 11.3846 63.9545 11.369C63.8422 11.3533 63.7347 11.3148 63.6389 11.2561C63.5364 11.2027 63.4466 11.1293 63.3749 11.0406C63.3032 10.9519 63.2513 10.8497 63.2224 10.7406C63.1912 10.6315 63.1834 10.5174 63.1995 10.4053C63.2157 10.2931 63.2555 10.1854 63.3163 10.0887L63.523 9.75218L64.9979 7.38111C65.4844 6.59682 65.9749 5.80747 66.4697 5.01307L66.6795 4.67651C66.7946 4.48828 66.9812 4.35115 67.1994 4.29447C67.31 4.26434 67.4259 4.25687 67.5396 4.27253C67.6534 4.28819 67.7625 4.32664 67.8601 4.38543C67.961 4.43787 68.0497 4.50982 68.1207 4.59682C68.1917 4.68382 68.2435 4.78401 68.2729 4.89118C68.3022 4.99836 68.3085 5.11023 68.2914 5.21987C68.2743 5.3295 68.234 5.43455 68.1733 5.52852C68.1404 5.59242 68.1016 5.65331 68.0574 5.71044C68.0125 5.76608 67.9737 5.82602 67.9415 5.88934C67.9125 5.91672 67.8919 5.95136 67.882 5.98939C67.8732 6.03442 67.8539 6.07693 67.8257 6.11371L67.7787 6.24712C67.763 6.2926 67.7474 6.34415 67.7317 6.40479V6.58368C67.7464 6.67158 67.7783 6.75597 67.8257 6.83231C67.8353 6.87181 67.8511 6.90964 67.8726 6.94449C67.951 7.08216 68.04 7.21392 68.1388 7.33866C68.2365 7.4631 68.3254 7.59377 68.405 7.7298C68.4959 7.88997 68.5775 8.05497 68.6492 8.22402C68.7181 8.39078 68.7839 8.55452 68.8465 8.71825C69.0616 9.3396 69.1478 9.99597 69.1002 10.6497C69.0845 10.9044 69.0626 11.153 69.0313 11.3895C69.0015 11.6267 68.9469 11.8603 68.8684 12.0869C68.8378 12.1736 68.8303 12.2664 68.8465 12.3567C68.8588 12.4372 68.8899 12.5139 68.9373 12.5811C68.9615 12.6116 68.9938 12.6351 69.0308 12.649C69.0678 12.663 69.1081 12.6667 69.1471 12.6599C69.2629 12.6388 69.3709 12.5886 69.4603 12.5144C69.7391 12.3036 69.9989 12.0703 70.2369 11.817C70.4749 11.5623 70.7035 11.3016 70.9196 11.0317C71.0404 10.888 71.1533 10.7382 71.2578 10.583L71.5709 10.11C71.6276 10.0144 71.7034 9.93059 71.7937 9.86351C71.8841 9.79643 71.9873 9.74737 72.0974 9.71917C72.2075 9.69098 72.3223 9.6842 72.4351 9.69923C72.5479 9.71426 72.6565 9.75081 72.7546 9.80676L72.7734 9.82798Z" fill="#EA580C"/>
<path id="Vector_8" d="M36.9087 9.49466C36.9832 10.7087 36.9402 11.9268 36.7803 13.1331C36.7803 13.2635 36.7489 13.3909 36.7302 13.5182C36.7521 13.3454 36.7302 13.4667 36.7302 13.5607C36.7302 13.6546 36.7082 13.7092 36.6957 13.785C36.6487 14.07 36.5986 14.352 36.5423 14.637C36.4201 15.2434 36.2698 15.8226 36.0882 16.4047C35.9943 16.7079 35.8909 17.0111 35.7751 17.2992C35.7187 17.4447 35.6623 17.6024 35.6028 17.7297C35.5746 17.7995 35.5151 17.9299 35.5809 17.7873L35.4588 18.0542C35.1842 18.6442 34.8595 19.2111 34.488 19.7491C34.3972 19.8825 34.3033 20.0098 34.2062 20.1372C34.178 20.1796 34.0277 20.3616 34.1467 20.2191L33.9744 20.4252C33.7559 20.6793 33.5238 20.9222 33.2793 21.1529C33.1571 21.2651 33.035 21.3773 32.9097 21.4834L32.7156 21.6411L32.6154 21.7169C32.4995 21.8109 32.6811 21.6714 32.6154 21.7169C32.3294 21.9242 32.0314 22.1156 31.7229 22.29C31.4073 22.4673 31.081 22.6262 30.7459 22.766C30.8962 22.7023 30.6613 22.7963 30.6144 22.8115L30.3482 22.9055C30.1446 22.9752 29.938 23.0389 29.7219 23.0934C29.3302 23.1965 28.933 23.2785 28.5319 23.339L28.3754 23.3603H28.3503L28.1186 23.3845C27.9526 23.4027 27.7866 23.4148 27.6207 23.4239C27.3514 23.4239 27.082 23.4239 26.8159 23.4239C26.6937 23.4239 26.5747 23.4239 26.4526 23.3997L26.3054 23.3967C26.5747 23.3967 26.3493 23.3967 26.2741 23.3967C26.0723 23.3627 25.8734 23.3141 25.6791 23.2511L25.5508 23.2087C25.391 23.1541 25.5288 23.239 25.5883 23.2269C25.5382 23.2269 25.3848 23.1298 25.3378 23.1056C25.2908 23.0813 25.2157 23.0267 25.1531 22.9934C25.0278 22.9237 25.3034 23.1298 25.2063 23.0328C25.1781 23.0055 25.1437 22.9813 25.1123 22.954C25.081 22.9267 25.0215 22.8479 24.9714 22.8084C24.9213 22.769 25.0873 22.9904 25.0184 22.866C24.9996 22.8357 24.9746 22.8084 24.9558 22.7751C24.937 22.7417 24.8493 22.5355 24.9025 22.6872C24.9558 22.8388 24.8837 22.6295 24.8712 22.578C24.8587 22.5265 24.8712 22.5174 24.8493 22.487C24.8086 22.3445 24.8806 22.5204 24.8493 22.5719C24.8712 22.5295 24.8493 22.4143 24.8493 22.3627C24.854 22.2951 24.854 22.2272 24.8493 22.1596C24.8493 22.1596 24.8023 22.393 24.8493 22.2354C24.8493 22.196 24.8493 22.1565 24.8744 22.1171C24.8994 22.0777 24.9119 21.9716 24.937 21.8988C24.962 21.826 25.0497 21.5956 24.9933 21.7442C24.937 21.8928 25.0403 21.6502 25.0685 21.5986C25.0967 21.5471 25.1624 21.4349 25.2126 21.3561C25.2627 21.2772 25.3128 21.2014 25.366 21.1256L25.4537 21.0104C25.3503 21.1256 25.5664 20.8558 25.4537 21.0104C25.7494 20.6675 26.0753 20.3499 26.4276 20.0614L26.5685 19.9462L26.653 19.8825L26.7438 19.8158L26.9223 19.6915C27.1509 19.5368 27.3889 19.3883 27.6301 19.2488C27.8712 19.1093 28.1499 18.9456 28.4192 18.8304C28.557 18.7637 28.6948 18.7 28.8325 18.6394L29.0455 18.5454L29.1551 18.4999C29.0611 18.5363 29.2929 18.4392 29.1551 18.4999C29.8034 18.2423 30.4675 18.0236 31.1436 17.845C31.8978 17.6515 32.6632 17.5017 33.4358 17.3962C33.3137 17.3962 33.5642 17.378 33.4358 17.3962L33.5861 17.378L33.8492 17.3477C34.0809 17.3234 34.3126 17.3052 34.5444 17.2871C34.9859 17.2537 35.4306 17.2355 35.8721 17.2264C37.8259 17.1982 39.7764 17.3906 41.6842 17.7995C44.1612 18.318 46.5035 19.2276 48.921 19.9522C52.9012 21.1469 57.0629 22.0444 61.2466 22.108C63.5607 22.1444 65.9688 21.9261 68.1358 21.1317C69.1565 20.8058 70.102 20.2909 70.9197 19.6157L71.0074 19.5338C71.0883 19.463 71.1534 19.3769 71.1989 19.2809C71.2444 19.185 71.2693 19.081 71.272 18.9754C71.2747 18.8699 71.2552 18.7649 71.2148 18.6668C71.1743 18.5687 71.1136 18.4797 71.0365 18.405C70.9594 18.3303 70.8674 18.2716 70.7661 18.2324C70.6648 18.1932 70.5564 18.1744 70.4473 18.177C70.3383 18.1796 70.231 18.2037 70.1318 18.2477C70.0327 18.2918 69.9438 18.3549 69.8707 18.4332L69.7736 18.5241L69.6452 18.6303L69.5669 18.6909C69.5231 18.7273 69.7767 18.5423 69.6202 18.6515C69.2047 18.9387 68.7635 19.1894 68.3018 19.4004L68.0763 19.4974C68.0763 19.4974 67.9667 19.555 67.9573 19.5459C67.9479 19.5368 68.1577 19.4671 68.0607 19.5065L67.9667 19.5429C67.7788 19.6157 67.5878 19.6854 67.3968 19.7491C66.9584 19.8946 66.5106 20.0189 66.0597 20.122C65.805 20.1786 65.5482 20.2302 65.2893 20.2767L64.8916 20.3434L64.6567 20.3767C64.5753 20.3767 64.3812 20.4131 64.5785 20.3767C63.9125 20.4576 63.2444 20.5111 62.5743 20.5374C60.8997 20.5854 59.2239 20.4992 57.5639 20.2797H57.517L57.3447 20.2585L56.9909 20.2069C56.7184 20.1675 56.4491 20.1251 56.1767 20.0796C55.6381 19.9906 55.1005 19.8896 54.564 19.7764C53.3928 19.5399 52.231 19.2609 51.0786 18.9486C48.5202 18.2573 46.0682 17.278 43.4879 16.623C41.3791 16.0736 39.213 15.7562 37.0308 15.677C33.7897 15.5739 30.4547 16.0803 27.5267 17.4963C26.4966 17.9923 25.5556 18.6454 24.7397 19.4307C24.0807 20.0344 23.5961 20.7942 23.3337 21.635C23.2193 22.0202 23.2041 22.4265 23.2893 22.8187C23.3744 23.2108 23.5574 23.5769 23.8222 23.8848C24.4265 24.5852 25.366 24.8399 26.2459 24.9491C27.637 25.0856 29.0421 24.9474 30.3764 24.5428C31.9061 24.1037 33.303 23.312 34.4473 22.2354C36.4515 20.3403 37.5537 17.6873 38.0924 15.0797C38.4482 13.3312 38.5912 11.5483 38.5182 9.76755C38.5182 9.67659 38.5182 9.58562 38.5026 9.49466C38.5094 9.38845 38.4937 9.282 38.4565 9.18188C38.4192 9.08176 38.3612 8.99009 38.2859 8.91253C38.2106 8.83496 38.1198 8.77315 38.0189 8.73089C37.918 8.68864 37.8093 8.66684 37.6994 8.66684C37.5894 8.66684 37.4807 8.68864 37.3798 8.73089C37.2789 8.77315 37.1881 8.83496 37.1128 8.91253C37.0375 8.99009 36.9795 9.08176 36.9422 9.18188C36.905 9.282 36.8893 9.38845 36.8961 9.49466H36.9087Z" fill="#EA580C"/>
<path id="Vector_9" d="M12.555 8.18447C12.636 8.05241 12.756 7.94681 12.8995 7.88127L12.4235 7.57806C12.3809 7.54999 12.3331 7.53031 12.2826 7.52015C12.2322 7.50998 12.1802 7.50954 12.1296 7.51883C12.079 7.52812 12.0308 7.54697 11.9877 7.5743C11.9447 7.60163 11.9076 7.63691 11.8786 7.67812C11.8496 7.71933 11.8293 7.76567 11.8188 7.81449C11.8083 7.8633 11.8078 7.91364 11.8174 7.96263C11.827 8.01162 11.8465 8.0583 11.8747 8.10001C11.9029 8.14171 11.9394 8.17763 11.9819 8.2057L12.4485 8.5089C12.4594 8.39458 12.4957 8.2839 12.555 8.18447Z" fill="#EA580C"/>
<path id="Vector_10" d="M8.51236 17.2506L8.24619 18.2724C8.22052 18.3697 8.23578 18.4729 8.28862 18.5593C8.34147 18.6457 8.42757 18.7083 8.52802 18.7333C8.62934 18.7581 8.73669 18.743 8.82651 18.6913C8.91634 18.6396 8.9813 18.5555 9.00714 18.4574L9.2921 17.3689C9.29818 17.3348 9.29818 17.2999 9.2921 17.2658C9.17088 17.3256 9.03629 17.3555 8.90027 17.3528C8.76425 17.3502 8.63101 17.3151 8.51236 17.2506Z" fill="#EA580C"/>
<path id="Vector_11" d="M17.5122 6.62341C17.5721 7.09234 17.503 7.56828 17.3118 8.003C17.1371 8.44177 16.8453 8.82783 16.4663 9.12183C16.0592 9.44911 15.559 9.64895 15.032 9.69488C14.5197 9.7328 14.0044 9.68249 13.5101 9.54631C13.3417 9.50816 13.1855 9.43037 13.0555 9.31983C12.9255 9.2093 12.8257 9.06943 12.7648 8.91261C12.7216 8.798 12.7059 8.67537 12.719 8.55401C12.732 8.43266 12.7734 8.31577 12.84 8.21221C12.9511 8.04308 13.1267 7.92323 13.3285 7.87868C13.5608 7.82481 13.8042 7.83638 14.03 7.91203C14.2793 7.98772 14.539 8.02656 14.8003 8.02725C14.928 8.02825 15.0541 7.99958 15.1679 7.94366C15.2818 7.88774 15.3802 7.80619 15.4548 7.70585C15.6284 7.46723 15.7362 7.18961 15.7679 6.89933C15.7814 6.75161 15.7618 6.60282 15.7105 6.4631C15.6591 6.32339 15.5772 6.19605 15.4704 6.08977C15.0519 5.62652 14.4812 5.31706 13.8546 5.2135C13.2142 5.08983 12.55 5.16187 11.9538 5.41968C11.7345 5.52159 11.5369 5.6625 11.3713 5.83507C11.1894 6.01905 11.0297 6.2225 10.8953 6.44149C10.7609 6.66231 10.6557 6.89865 10.5822 7.14492C10.5152 7.36827 10.4877 7.60097 10.5008 7.8332C10.5248 8.30061 10.676 8.75355 10.9392 9.14608C11.2119 9.53713 11.5268 9.89897 11.8786 10.2255C12.2356 10.5651 12.5989 10.8895 12.9715 11.2048C13.3324 11.5077 13.655 11.8506 13.9329 12.2267C14.2684 12.6807 14.5598 13.1639 14.8034 13.6699C15.0517 14.1634 15.2045 14.6968 15.2544 15.2436C15.3052 15.8301 15.2978 16.42 15.2325 17.0052C15.1807 17.4867 15.0757 17.9614 14.9193 18.4212C14.7789 18.8213 14.5963 19.2064 14.3744 19.5703C14.1615 19.916 13.9423 20.2404 13.7199 20.5466C13.0987 21.4101 12.3029 22.1424 11.3807 22.6994C10.4478 23.2804 9.41307 23.6914 8.32752 23.9122C7.57649 24.0519 6.80816 24.0825 6.0478 24.0032C5.28339 23.9308 4.53649 23.7372 3.83697 23.4301C3.14443 23.1236 2.50945 22.7076 1.95808 22.1991C1.3757 21.6672 0.912101 21.0253 0.595883 20.3132C0.219048 19.4488 0.0170662 18.5224 0.000900205 17.5843C-0.0149819 16.6455 0.179458 15.7145 0.570831 14.8554C0.840049 14.2722 1.20605 13.7355 1.65433 13.2667C2.09243 12.8009 2.61052 12.4121 3.18562 12.1175C3.72313 11.8364 4.30517 11.6437 4.90794 11.5475C5.53058 11.4466 6.16679 11.4538 6.78683 11.5687C7.38444 11.6849 7.95195 11.9159 8.45591 12.2479C8.97173 12.5873 9.37606 13.063 9.62083 13.6184C9.77712 13.9864 9.88242 14.3728 9.93398 14.7675C9.98672 15.1721 9.96659 15.5824 9.87448 15.9803C9.79306 16.4564 9.63648 16.7596 9.39849 16.89C9.29704 16.9518 9.18356 16.9929 9.06506 17.0106C8.94657 17.0284 8.82557 17.0224 8.70956 16.9931C8.60108 16.964 8.50131 16.9104 8.41853 16.8366C8.33575 16.7627 8.27234 16.6709 8.23358 16.5686C8.13411 16.217 8.11382 15.8489 8.17408 15.4892C8.20764 15.054 8.12232 14.6179 7.92669 14.2248C7.82982 14.0286 7.69223 13.8538 7.52252 13.7114C7.3528 13.569 7.1546 13.462 6.94027 13.397C6.37909 13.2107 5.7803 13.1556 5.1929 13.2363C4.57579 13.3146 3.99458 13.5618 3.51756 13.9489C3.02018 14.3352 2.61526 14.8214 2.33073 15.3739C1.76314 16.4597 1.63148 17.7107 1.96121 18.8851C2.12451 19.4755 2.403 20.0302 2.78166 20.5193C3.11717 20.9857 3.5585 21.3716 4.07183 21.6473C4.58161 21.922 5.13511 22.1126 5.7096 22.2112C6.29377 22.3099 6.88941 22.3283 7.47889 22.2658C8.06937 22.2105 8.64846 22.0726 9.19808 21.8565C9.84759 21.6121 10.4556 21.2748 11.0018 20.8559C11.4211 20.5215 11.7966 20.1386 12.1198 19.7158C12.3264 19.4399 12.5456 19.1094 12.7836 18.7516C13.033 18.3578 13.2219 17.9308 13.3442 17.4842C13.4809 16.9821 13.5369 16.4626 13.5101 15.944C13.4194 14.8646 12.9688 13.843 12.2262 13.0332C11.9152 12.7017 11.5978 12.3793 11.2743 12.066C10.9392 11.7627 10.6041 11.4292 10.2628 11.0987C9.91623 10.7607 9.60955 10.3865 9.34839 9.98293C9.07914 9.58061 8.88318 9.13654 8.76906 8.67005C8.65001 8.20415 8.62239 7.72075 8.68764 7.24498C8.77891 6.46798 9.09598 5.732 9.60204 5.12254C10.0796 4.53977 10.6995 4.08128 11.4058 3.78843C12.1181 3.49577 12.8914 3.36907 13.6636 3.41852C14.3254 3.45957 14.9691 3.64443 15.547 3.95938C16.1249 4.27432 16.6221 4.71126 17.0017 5.23776C17.2887 5.65115 17.4641 6.12751 17.5122 6.62341Z" fill="#EA580C"/>
<path id="Vector_12" d="M32.6279 1.52028L33.0789 0.562148C33.1052 0.51603 33.1212 0.465114 33.1261 0.412646C33.1309 0.360179 33.1244 0.307313 33.1069 0.257422C33.0895 0.207531 33.0615 0.16171 33.0247 0.122882C32.9879 0.0840553 32.9432 0.0530745 32.8934 0.0319169C32.8436 0.0107593 32.7897 -0.000110596 32.7353 8.48336e-07C32.6809 0.000112292 32.6272 0.0112026 32.5774 0.0325641C32.5277 0.0539257 32.4831 0.0850894 32.4465 0.124067C32.4099 0.163044 32.3821 0.20898 32.3649 0.258942L31.8826 1.28378C31.8691 1.31556 31.8617 1.34947 31.8607 1.38384C31.9904 1.34395 32.1281 1.33554 32.2619 1.35933C32.3957 1.38312 32.5214 1.43839 32.6279 1.52028Z" fill="#EA580C"/>
<path id="Vector_13" d="M71.3486 18.2879C71.454 18.4064 71.5225 18.5515 71.5459 18.7063L72.0031 18.3697C72.0442 18.3397 72.0788 18.3021 72.1049 18.2591C72.1311 18.216 72.1482 18.1685 72.1553 18.1191C72.1624 18.0696 72.1594 18.0194 72.1465 17.9711C72.1335 17.9228 72.1109 17.8774 72.0798 17.8376C72.0488 17.7978 72.0099 17.7643 71.9655 17.739C71.9211 17.7137 71.872 17.6972 71.8209 17.6903C71.7699 17.6834 71.718 17.6863 71.6681 17.6988C71.6182 17.7113 71.5714 17.7333 71.5302 17.7633L71.0856 18.0938C71.1855 18.1412 71.2749 18.2072 71.3486 18.2879Z" fill="#EA580C"/>
<path id="Vector_14" d="M72.9644 9.63369C73.1048 9.72241 73.214 9.85036 73.2776 10.0006L73.6502 9.57911C73.6891 9.54192 73.7195 9.49733 73.7396 9.44816C73.7598 9.39898 73.7691 9.3463 73.7671 9.29344C73.7651 9.24059 73.7518 9.18871 73.728 9.14109C73.7042 9.09347 73.6705 9.05116 73.6289 9.01682C73.5874 8.98249 73.5389 8.95688 73.4866 8.94162C73.4343 8.92637 73.3793 8.92179 73.3251 8.92819C73.2709 8.93459 73.2186 8.95182 73.1716 8.97879C73.1246 9.00576 73.0839 9.04189 73.0521 9.08488L72.6888 9.50027C72.7888 9.52693 72.8824 9.57225 72.9644 9.63369Z" fill="#EA580C"/>
<path id="Vector_15" d="M73.5376 3.74289C73.6472 3.74289 73.7523 3.78506 73.8299 3.86011C73.9074 3.93517 73.9509 4.03697 73.9509 4.14312C73.9522 4.22064 73.9293 4.29673 73.8852 4.36143C73.8419 4.42374 73.7825 4.47394 73.7129 4.50697L73.9509 4.81017H73.4969L73.2902 4.55245H72.9081V4.81017H72.4791V3.74895L73.5376 3.74289ZM72.9113 4.0461V4.22802H73.4311C73.4435 4.22862 73.4558 4.22647 73.4672 4.22174C73.4786 4.21701 73.4888 4.20983 73.4969 4.20073C73.5058 4.19252 73.5129 4.18264 73.5177 4.17169C73.5225 4.16075 73.525 4.14897 73.525 4.13706C73.525 4.11293 73.5151 4.0898 73.4975 4.07274C73.4799 4.05568 73.456 4.0461 73.4311 4.0461H72.9113Z" fill="#EA580C"/>
<path id="Vector_16" d="M73.215 5.9987C72.8628 5.9981 72.5188 5.89648 72.2262 5.70668C71.9337 5.51688 71.7058 5.2474 71.5713 4.93228C71.4368 4.61716 71.4018 4.27052 71.4707 3.93614C71.5395 3.60176 71.7092 3.29463 71.9582 3.05353C72.2072 2.81243 72.5244 2.64818 72.8697 2.58152C73.2151 2.51485 73.5731 2.54876 73.8985 2.67896C74.224 2.80917 74.5023 3.02983 74.6983 3.31308C74.8943 3.59632 74.9993 3.92946 74.9999 4.27043C75.0003 4.4975 74.9544 4.72242 74.8649 4.93228C74.7753 5.14214 74.6439 5.33283 74.478 5.49339C74.3122 5.65395 74.1153 5.78124 73.8985 5.86796C73.6818 5.95467 73.4495 5.9991 73.215 5.9987ZM73.215 2.90903C72.9363 2.90903 72.6638 2.98905 72.4321 3.13898C72.2003 3.2889 72.0197 3.502 71.9131 3.75131C71.8064 4.00063 71.7785 4.27497 71.8329 4.53964C71.8872 4.80432 72.0215 5.04743 72.2185 5.23825C72.4156 5.42907 72.6667 5.55902 72.94 5.61167C73.2134 5.66431 73.4967 5.63729 73.7542 5.53402C74.0117 5.43075 74.2318 5.25587 74.3866 5.03149C74.5415 4.80711 74.6241 4.54332 74.6241 4.27346C74.6241 3.91159 74.4757 3.56454 74.2114 3.30866C73.9471 3.05278 73.5887 2.90903 73.215 2.90903Z" fill="#EA580C"/>
</g>
</g>
</svg>
